<?xml version="1.0" standalone="no"?>
<!DOCTYPE svg PUBLIC "-//W3C//DTD SVG 20010904//EN"
 "http://www.w3.org/TR/2001/REC-SVG-20010904/DTD/svg10.dtd">
<svg version="1.0" xmlns="http://www.w3.org/2000/svg"
 width="512.000000pt" height="512.000000pt" viewBox="0 0 512.000000 512.000000"
 preserveAspectRatio="xMidYMid meet">

<g transform="translate(0.000000,512.000000) scale(0.100000,-0.100000)"
fill="#000000" stroke="none">
<path d="M1296 4675 c-436 -88 -768 -422 -851 -858 -23 -119 -23 -2395 0
-2514 83 -438 420 -775 858 -858 119 -23 2395 -23 2514 0 438 83 775 420 858
858 22 118 22 861 0 915 -67 160 -299 170 -383 17 -15 -26 -18 -85 -23 -440
-7 -453 -7 -457 -76 -595 -54 -110 -170 -224 -284 -278 -149 -71 -71 -67
-1349 -67 -937 0 -1165 3 -1210 14 -181 44 -352 180 -428 341 -71 150 -67 72
-67 1350 0 1278 -4 1200 67 1350 54 114 168 229 278 284 146 72 117 69 811 75
l626 6 36 25 c21 14 50 43 65 64 24 35 27 49 27 116 0 67 -3 81 -27 116 -15
21 -44 50 -65 64 l-37 25 -635 2 c-505 1 -650 -1 -705 -12z"/>
<path d="M3340 4467 c-48 -15 -113 -83 -128 -133 -8 -27 -12 -115 -12 -258 l0
-216 -148 0 c-494 0 -890 -131 -1159 -384 -175 -164 -311 -414 -374 -686 -26
-111 -38 -406 -19 -487 25 -114 146 -191 254 -162 73 19 101 45 167 151 184
301 487 456 969 498 132 11 234 13 279 4 l31 -6 0 -242 c0 -240 0 -242 26
-294 44 -89 133 -132 234 -111 l55 11 569 566 c385 385 574 580 587 607 10 22
19 62 19 90 0 105 13 92 -592 577 -304 243 -573 453 -597 465 -48 25 -103 28
-161 10z"/>
</g>
</svg>
